P3
50 50
255
94 94 94 90 90 90 68 68 68 118 118 118 123 123 123 175 175 175 179 179 179 178 178 178 181 181 181 187 187 187 166 166 166 192 192 192 188 188 188 188 188 188 157 157 157 143 143 143 182 182 182 185 185 185 192 192 192 190 190 190 189 189 189 188 188 188 186 186 186 185 185 185 185 185 185 185 185 185 186 186 186 185 185 185 183 183 183 183 183 183 184 184 184 186 186 186 185 185 185 186 186 186 183 183 183 182 182 182 185 185 185 186 186 186 187 187 187 155 155 155 150 150 150 142 142 142 138 138 138 130 130 130 91 91 91 93 93 93 103 103 103 105 105 105 105 105 105 93 93 93 
96 96 96 94 94 94 91 91 91 84 84 84 111 111 111 117 117 117 227 227 227 173 173 173 179 179 179 206 206 206 183 183 183 184 184 184 185 185 185 188 188 188 189 189 189 190 190 190 181 181 181 185 185 185 193 193 193 192 192 192 190 190 190 187 187 187 187 187 187 186 186 186 186 186 186 186 186 186 186 186 186 185 185 185 183 183 183 183 183 183 185 185 185 187 187 187 186 186 186 184 184 184 182 182 182 184 184 184 187 187 187 188 188 188 179 179 179 154 154 154 150 150 150 146 146 146 140 140 140 135 135 135 126 126 126 79 79 79 87 87 87 97 97 97 107 107 107 110 110 110 
99 99 99 95 95 95 94 94 94 94 94 94 90 90 90 108 108 108 113 113 113 196 196 196 177 177 177 167 167 167 184 184 184 185 185 185 186 186 186 186 186 186 187 187 187 187 187 187 194 194 194 182 182 182 160 160 160 193 193 193 192 192 192 188 188 188 188 188 188 188 188 188 187 187 187 186 186 186 186 186 186 185 185 185 184 184 184 184 184 184 185 185 185 186 186 186 186 186 186 185 185 185 185 185 185 188 188 188 188 188 188 188 188 188 178 178 178 158 158 158 151 151 151 146 146 146 142 142 142 135 135 135 132 132 132 95 95 95 78 78 78 81 81 81 81 81 81 81 81 81 
102 102 102 99 99 99 95 95 95 95 95 95 94 94 94 86 86 86 97 97 97 117 117 117 170 170 170 181 181 181 180 180 180 184 184 184 184 184 184 185 185 185 187 187 187 187 187 187 190 190 190 199 199 199 198 198 198 192 192 192 194 194 194 191 191 191 189 189 189 188 188 188 188 188 188 187 187 187 186 186 186 184 184 184 185 185 185 186 186 186 186 186 186 187 187 187 184 184 184 185 185 185 186 186 186 188 188 188 187 187 187 188 188 188 184 184 184 161 161 161 151 151 151 148 148 148 143 143 143 136 136 136 131 131 131 117 117 117 74 74 74 71 71 71 74 74 74 76 76 76 
110 110 110 105 105 105 101 101 101 99 99 99 97 97 97 94 94 94 77 77 77 116 116 116 103 103 103 179 179 179 180 180 180 184 184 184 185 185 185 188 188 188 188 188 188 187 187 187 190 190 190 172 172 172 194 194 194 190 190 190 193 193 193 191 191 191 191 191 191 189 189 189 189 189 189 189 189 189 189 189 189 185 185 185 186 186 186 187 187 187 189 189 189 189 189 189 188 188 188 189 189 189 188 188 188 187 187 187 187 187 187 187 187 187 188 188 188 161 161 161 151 151 151 149 149 149 143 143 143 139 139 139 134 134 134 131 131 131 91 91 91 72 72 72 73 73 73 74 74 74 
109 109 109 104 104 104 106 106 106 103 103 103 100 100 100 96 96 96 92 92 92 103 103 103 115 115 115 135 135 135 179 179 179 181 181 181 185 185 185 185 185 185 187 187 187 190 190 190 192 192 192 175 175 175 195 195 195 214 214 214 192 192 192 191 191 191 191 191 191 191 191 191 192 192 192 192 192 192 192 192 192 192 192 192 188 188 188 188 188 188 190 190 190 188 188 188 189 189 189 189 189 189 188 188 188 186 186 186 188 188 188 187 187 187 189 189 189 160 160 160 152 152 152 150 150 150 146 146 146 140 140 140 135 135 135 131 131 131 131 131 131 97 97 97 75 75 75 75 75 75 
113 113 113 111 111 111 110 110 110 107 107 107 104 104 104 100 100 100 98 98 98 88 88 88 109 109 109 98 98 98 176 176 176 178 178 178 182 182 182 184 184 184 190 190 190 189 189 189 175 175 175 195 195 195 194 194 194 192 192 192 191 191 191 194 194 194 192 192 192 193 193 193 193 193 193 196 196 196 196 196 196 195 195 195 192 192 192 189 189 189 191 191 191 192 192 192 192 192 192 192 192 192 191 191 191 188 188 188 189 189 189 191 191 191 190 190 190 162 162 162 156 156 156 153 153 153 149 149 149 145 145 145 139 139 139 134 134 134 130 130 130 121 121 121 72 72 72 79 79 79 
120 120 120 119 119 119 112 112 112 110 110 110 107 107 107 104 104 104 100 100 100 98 98 98 85 85 85 113 113 113 160 160 160 176 176 176 184 184 184 187 187 187 190 190 190 194 194 194 192 192 192 123 123 123 194 194 194 193 193 193 196 196 196 196 196 196 195 195 195 194 194 194 196 196 196 197 197 197 200 200 200 197 197 197 195 195 195 191 191 191 192 192 192 192 192 192 191 191 191 196 196 196 195 195 195 191 191 191 191 191 191 191 191 191 193 193 193 169 169 169 160 160 160 156 156 156 152 152 152 148 148 148 143 143 143 138 138 138 133 133 133 126 126 126 91 91 91 84 84 84 
126 126 126 128 128 128 117 117 117 112 112 112 108 108 108 107 107 107 105 105 105 103 103 103 90 90 90 116 116 116 199 199 199 178 178 178 175 175 175 178 178 178 179 179 179 179 179 179 151 151 151 179 179 179 192 192 192 192 192 192 195 195 195 196 196 196 197 197 197 197 197 197 199 199 199 203 203 203 203 203 203 199 199 199 196 196 196 194 194 194 193 193 193 198 198 198 197 197 197 196 196 196 194 194 194 193 193 193 194 194 194 194 194 194 195 195 195 193 193 193 162 162 162 159 159 159 156 156 156 152 152 152 148 148 148 141 141 141 136 136 136 128 128 128 127 127 127 100 100 100 
132 132 132 132 132 132 124 124 124 115 115 115 109 109 109 108 108 108 107 107 107 103 103 103 95 95 95 108 108 108 200 200 200 176 176 176 177 177 177 179 179 179 179 179 179 179 179 179 177 177 177 179 179 179 190 190 190 192 192 192 195 195 195 197 197 197 197 197 197 197 197 197 201 201 201 203 203 203 204 204 204 200 200 200 192 192 192 192 192 192 199 199 199 198 198 198 195 195 195 195 195 195 194 194 194 195 195 195 194 194 194 195 195 195 195 195 195 197 197 197 168 168 168 161 161 161 158 158 158 156 156 156 150 150 150 143 143 143 138 138 138 130 130 130 127 127 127 62 62 62 
55 55 55 61 61 61 61 61 61 57 57 57 59 59 59 59 59 59 58 58 58 53 53 53 53 53 53 89 89 89 197 197 197 180 180 180 177 177 177 181 181 181 180 180 180 179 179 179 179 179 179 180 180 180 190 190 190 192 192 192 196 196 196 195 195 195 198 198 198 199 199 199 204 204 204 208 208 208 205 205 205 200 200 200 193 193 193 195 195 195 201 201 201 199 199 199 196 196 196 197 197 197 195 195 195 194 194 194 195 195 195 196 196 196 195 195 195 197 197 197 197 197 197 169 169 169 161 161 161 158 158 158 154 154 154 147 147 147 138 138 138 127 127 127 128 128 128 87 87 87 
44 44 44 61 61 61 63 63 63 60 60 60 60 60 60 59 59 59 65 65 65 52 52 52 55 55 55 97 97 97 204 204 204 181 181 181 178 178 178 182 182 182 182 182 182 181 181 181 180 180 180 181 181 181 217 217 217 204 204 204 199 199 199 197 197 197 198 198 198 203 203 203 206 206 206 208 208 208 206 206 206 205 205 205 203 203 203 201 201 201 203 203 203 200 200 200 197 197 197 197 197 197 197 197 197 194 194 194 195 195 195 196 196 196 196 196 196 197 197 197 197 197 197 196 196 196 166 166 166 159 159 159 152 152 152 148 148 148 137 137 137 126 126 126 93 93 93 68 68 68 
124 124 124 71 71 71 90 90 90 74 74 74 69 69 69 65 65 65 65 65 65 50 50 50 64 64 64 92 92 92 208 208 208 181 181 181 182 182 182 184 184 184 181 181 181 181 181 181 180 180 180 179 179 179 192 192 192 190 190 190 193 193 193 198 198 198 202 202 202 204 204 204 206 206 206 205 205 205 209 209 209 208 208 208 210 210 210 205 205 205 208 208 208 207 207 207 196 196 196 195 195 195 198 198 198 195 195 195 197 197 197 197 197 197 195 195 195 196 196 196 197 197 197 194 194 194 182 182 182 161 161 161 154 154 154 147 147 147 139 139 139 132 132 132 82 82 82 80 80 80 
157 157 157 173 173 173 152 152 152 149 149 149 141 141 141 123 123 123 110 110 110 108 108 108 82 82 82 98 98 98 216 216 216 186 186 186 184 184 184 187 187 187 184 184 184 182 182 182 181 181 181 181 181 181 186 186 186 187 187 187 197 197 197 203 203 203 206 206 206 203 203 203 206 206 206 208 208 208 210 210 210 208 208 208 214 214 214 210 210 210 210 210 210 206 206 206 196 196 196 197 197 197 200 200 200 197 197 197 197 197 197 197 197 197 194 194 194 194 194 194 197 197 197 195 195 195 183 183 183 159 159 159 153 153 153 145 145 145 142 142 142 135 135 135 87 87 87 81 81 81 
160 160 160 179 179 179 152 152 152 154 154 154 148 148 148 139 139 139 111 111 111 111 111 111 112 112 112 110 110 110 217 217 217 188 188 188 192 192 192 193 193 193 189 189 189 190 190 190 187 187 187 182 182 182 186 186 186 184 184 184 212 212 212 201 201 201 95 95 95 208 208 208 205 205 205 204 204 204 209 209 209 168 168 168 104 104 104 210 210 210 209 209 209 204 204 204 199 199 199 198 198 198 198 198 198 199 199 199 198 198 198 196 196 196 194 194 194 194 194 194 194 194 194 191 191 191 183 183 183 159 159 159 153 153 153 146 146 146 141 141 141 134 134 134 85 85 85 84 84 84 
166 166 166 166 166 166 155 155 155 154 154 154 154 154 154 146 146 146 123 123 123 115 115 115 108 108 108 123 123 123 210 210 210 202 202 202 203 203 203 205 205 205 203 203 203 200 200 200 203 203 203 194 194 194 188 188 188 185 185 185 213 213 213 107 107 107 107 107 107 33 33 33 203 203 203 205 205 205 210 210 210 40 40 40 107 107 107 211 211 211 208 208 208 204 204 204 201 201 201 197 197 197 197 197 197 196 196 196 195 195 195 193 193 193 190 190 190 191 191 191 188 188 188 185 185 185 177 177 177 162 162 162 154 154 154 147 147 147 141 141 141 133 133 133 84 84 84 87 87 87 
171 171 171 126 126 126 163 163 163 157 157 157 156 156 156 153 153 153 132 132 132 115 115 115 107 107 107 125 125 125 195 195 195 201 201 201 203 203 203 204 204 204 204 204 204 203 203 203 193 193 193 198 198 198 189 189 189 185 185 185 203 203 203 108 108 108 81 81 81 44 44 44 204 204 204 204 204 204 207 207 207 40 40 40 108 108 108 173 173 173 208 208 208 198 198 198 199 199 199 196 196 196 197 197 197 196 196 196 193 193 193 190 190 190 187 187 187 188 188 188 185 185 185 184 184 184 177 177 177 161 161 161 153 153 153 148 148 148 139 139 139 131 131 131 83 83 83 89 89 89 
171 171 171 90 90 90 172 172 172 163 163 163 161 161 161 157 157 157 131 131 131 119 119 119 101 101 101 125 125 125 189 189 189 200 200 200 202 202 202 203 203 203 203 203 203 201 201 201 199 199 199 195 195 195 189 189 189 188 188 188 210 210 210 107 107 107 62 62 62 43 43 43 205 205 205 201 201 201 28 28 28 40 40 40 90 90 90 118 118 118 209 209 209 206 206 206 200 200 200 200 200 200 200 200 200 198 198 198 192 192 192 191 191 191 191 191 191 189 189 189 185 185 185 182 182 182 170 170 170 159 159 159 151 151 151 144 144 144 138 138 138 132 132 132 83 83 83 88 88 88 
170 170 170 85 85 85 170 170 170 166 166 166 164 164 164 160 160 160 132 132 132 124 124 124 107 107 107 125 125 125 184 184 184 198 198 198 199 199 199 199 199 199 199 199 199 199 199 199 200 200 200 198 198 198 194 194 194 155 155 155 103 103 103 78 78 78 58 58 58 43 43 43 112 112 112 215 215 215 30 30 30 42 42 42 56 56 56 109 109 109 208 208 208 209 209 209 202 202 202 203 203 203 200 200 200 197 197 197 191 191 191 189 189 189 190 190 190 191 191 191 184 184 184 180 180 180 168 168 168 158 158 158 149 149 149 142 142 142 135 135 135 129 129 129 89 89 89 86 86 86 
161 161 161 78 78 78 169 169 169 167 167 167 165 165 165 160 160 160 133 133 133 124 124 124 108 108 108 125 125 125 182 182 182 197 197 197 198 198 198 197 197 197 198 198 198 198 198 198 198 198 198 195 195 195 191 191 191 194 194 194 107 107 107 25 25 25 34 34 34 41 41 41 45 45 45 43 43 43 43 43 43 44 44 44 35 35 35 108 108 108 208 208 208 211 211 211 207 207 207 204 204 204 201 201 201 198 198 198 191 191 191 189 189 189 189 189 189 188 188 188 184 184 184 180 180 180 166 166 166 157 157 157 149 149 149 140 140 140 134 134 134 125 125 125 92 92 92 88 88 88 
158 158 158 93 93 93 167 167 167 166 166 166 164 164 164 161 161 161 136 136 136 127 127 127 104 104 104 123 123 123 183 183 183 193 193 193 199 199 199 197 197 197 198 198 198 194 194 194 195 195 195 196 196 196 191 191 191 189 189 189 106 106 106 26 26 26 49 49 49 242 242 242 45 45 45 43 43 43 43 43 43 14 14 14 42 42 42 104 104 104 209 209 209 209 209 209 209 209 209 207 207 207 204 204 204 199 199 199 191 191 191 190 190 190 190 190 190 188 188 188 184 184 184 177 177 177 168 168 168 158 158 158 148 148 148 142 142 142 135 135 135 125 125 125 87 87 87 85 85 85 
159 159 159 104 104 104 164 164 164 164 164 164 162 162 162 155 155 155 133 133 133 127 127 127 91 91 91 126 126 126 176 176 176 188 188 188 193 193 193 195 195 195 195 195 195 195 195 195 197 197 197 197 197 197 192 192 192 187 187 187 22 22 22 30 30 30 236 236 236 250 250 250 174 174 174 43 43 43 33 33 33 202 202 202 246 246 246 44 44 44 211 211 211 212 212 212 209 209 209 207 207 207 200 200 200 198 198 198 193 193 193 192 192 192 192 192 192 187 187 187 182 182 182 175 175 175 164 164 164 156 156 156 148 148 148 142 142 142 134 134 134 121 121 121 90 90 90 81 81 81 
156 156 156 98 98 98 162 162 162 161 161 161 157 157 157 152 152 152 136 136 136 128 128 128 96 96 96 124 124 124 175 175 175 179 179 179 182 182 182 183 183 183 188 188 188 188 188 188 174 174 174 197 197 197 191 191 191 186 186 186 18 18 18 30 30 30 236 236 236 239 239 239 178 178 178 43 43 43 168 168 168 19 19 19 239 239 239 45 45 45 207 207 207 212 212 212 212 212 212 207 207 207 198 198 198 198 198 198 194 194 194 189 189 189 192 192 192 184 184 184 181 181 181 176 176 176 161 161 161 153 153 153 147 147 147 140 140 140 133 133 133 124 124 124 90 90 90 99 99 99 
155 155 155 94 94 94 162 162 162 160 160 160 157 157 157 154 154 154 134 134 134 128 128 128 96 96 96 124 124 124 177 177 177 166 166 166 24 24 24 41 41 41 181 181 181 180 180 180 178 178 178 204 204 204 186 186 186 182 182 182 31 31 31 30 30 30 37 37 37 56 56 56 45 45 45 27 27 27 43 43 43 249 249 249 42 42 42 40 40 40 209 209 209 212 212 212 205 205 205 202 202 202 197 197 197 196 196 196 194 194 194 190 190 190 189 189 189 185 185 185 181 181 181 175 175 175 161 161 161 150 150 150 144 144 144 139 139 139 132 132 132 124 124 124 77 77 77 62 62 62 
153 153 153 98 98 98 161 161 161 159 159 159 158 158 158 154 154 154 132 132 132 127 127 127 94 94 94 127 127 127 175 175 175 174 174 174 35 35 35 43 43 43 43 43 43 182 182 182 178 178 178 202 202 202 193 193 193 189 189 189 181 181 181 21 21 21 39 39 39 43 43 43 43 43 43 43 43 43 43 43 43 43 43 43 42 42 42 8 8 8 203 203 203 198 198 198 199 199 199 193 193 193 194 194 194 190 190 190 189 189 189 193 193 193 199 199 199 193 193 193 190 190 190 197 197 197 177 177 177 151 151 151 148 148 148 137 137 137 133 133 133 134 134 134 71 71 71 67 67 67 
149 149 149 102 102 102 156 156 156 153 153 153 155 155 155 153 153 153 130 130 130 129 129 129 78 78 78 128 128 128 172 172 172 175 175 175 178 178 178 7 7 7 39 39 39 37 37 37 176 176 176 201 201 201 180 180 180 192 192 192 123 123 123 176 176 176 40 40 40 41 41 41 43 43 43 43 43 43 43 43 43 44 44 44 27 27 27 224 224 224 203 203 203 201 201 201 198 198 198 176 176 176 180 180 180 168 168 168 176 176 176 180 180 180 171 171 171 164 164 164 163 163 163 107 107 107 152 152 152 119 119 119 127 127 127 126 126 126 124 124 124 116 116 116 77 77 77 79 79 79 
144 144 144 103 103 103 153 153 153 150 150 150 151 151 151 148 148 148 132 132 132 128 128 128 73 73 73 130 130 130 170 170 170 175 175 175 177 177 177 173 173 173 32 32 32 42 42 42 186 186 186 210 210 210 182 182 182 184 184 184 181 181 181 180 180 180 189 189 189 27 27 27 41 41 41 21 21 21 44 44 44 168 168 168 207 207 207 208 208 208 212 212 212 205 205 205 196 196 196 194 194 194 187 187 187 185 185 185 184 184 184 179 179 179 173 173 173 162 162 162 161 161 161 155 155 155 154 154 154 134 134 134 130 130 130 125 125 125 125 125 125 117 117 117 80 80 80 84 84 84 
134 134 134 105 105 105 148 148 148 152 152 152 149 149 149 147 147 147 133 133 133 127 127 127 75 75 75 127 127 127 172 172 172 170 170 170 175 175 175 176 176 176 188 188 188 42 42 42 42 42 42 204 204 204 178 178 178 177 177 177 182 182 182 180 180 180 32 32 32 31 31 31 43 43 43 43 43 43 43 43 43 175 175 175 205 205 205 208 208 208 208 208 208 201 201 201 198 198 198 197 197 197 189 189 189 188 188 188 187 187 187 183 183 183 173 173 173 163 163 163 161 161 161 154 154 154 150 150 150 132 132 132 132 132 132 128 128 128 122 122 122 118 118 118 80 80 80 82 82 82 
139 139 139 104 104 104 148 148 148 148 148 148 151 151 151 148 148 148 131 131 131 125 125 125 75 75 75 126 126 126 174 174 174 167 167 167 176 176 176 175 175 175 172 172 172 31 31 31 42 42 42 204 204 204 181 181 181 176 176 176 178 178 178 174 174 174 29 29 29 40 40 40 42 42 42 43 43 43 43 43 43 171 171 171 200 200 200 205 205 205 209 209 209 203 203 203 198 198 198 195 195 195 183 183 183 190 190 190 190 190 190 188 188 188 172 172 172 164 164 164 159 159 159 152 152 152 148 148 148 128 128 128 125 125 125 123 123 123 121 121 121 105 105 105 82 82 82 81 81 81 
138 138 138 101 101 101 146 146 146 149 149 149 146 146 146 146 146 146 131 131 131 124 124 124 70 70 70 120 120 120 171 171 171 177 177 177 177 177 177 180 180 180 177 177 177 29 29 29 43 43 43 208 208 208 181 181 181 179 179 179 176 176 176 39 39 39 30 30 30 42 42 42 43 43 43 42 42 42 41 41 41 43 43 43 194 194 194 196 196 196 198 198 198 198 198 198 194 194 194 187 187 187 186 186 186 192 192 192 191 191 191 176 176 176 174 174 174 165 165 165 158 158 158 148 148 148 148 148 148 124 124 124 126 126 126 122 122 122 118 118 118 80 80 80 82 82 82 83 83 83 
138 138 138 102 102 102 144 144 144 149 149 149 147 147 147 146 146 146 126 126 126 121 121 121 81 81 81 123 123 123 182 182 182 173 173 173 179 179 179 177 177 177 177 177 177 35 35 35 42 42 42 198 198 198 181 181 181 177 177 177 171 171 171 31 31 31 36 36 36 42 42 42 43 43 43 43 43 43 42 42 42 45 45 45 194 194 194 195 195 195 194 194 194 191 191 191 189 189 189 182 182 182 185 185 185 191 191 191 184 184 184 180 180 180 174 174 174 165 165 165 159 159 159 153 153 153 159 159 159 119 119 119 123 123 123 122 122 122 117 117 117 85 85 85 87 87 87 90 90 90 
137 137 137 96 96 96 141 141 141 145 145 145 144 144 144 143 143 143 125 125 125 122 122 122 86 86 86 119 119 119 176 176 176 174 174 174 176 176 176 177 177 177 175 175 175 30 30 30 43 43 43 188 188 188 181 181 181 178 178 178 34 34 34 31 31 31 42 42 42 42 42 42 42 42 42 42 42 42 41 41 41 44 44 44 195 195 195 202 202 202 204 204 204 208 208 208 209 209 209 208 208 208 203 203 203 199 199 199 189 189 189 126 126 126 116 116 116 121 121 121 123 123 123 131 131 131 152 152 152 122 122 122 109 109 109 115 115 115 120 120 120 89 89 89 89 89 89 91 91 91 
141 141 141 91 91 91 136 136 136 139 139 139 143 143 143 152 152 152 77 77 77 61 61 61 66 66 66 116 116 116 169 169 169 171 171 171 175 175 175 179 179 179 177 177 177 26 26 26 42 42 42 197 197 197 200 200 200 221 221 221 29 29 29 29 29 29 41 41 41 42 42 42 44 44 44 44 44 44 26 26 26 43 43 43 170 170 170 177 177 177 181 181 181 184 184 184 185 185 185 153 153 153 180 180 180 171 171 171 172 172 172 177 177 177 169 169 169 160 160 160 156 156 156 118 118 118 152 152 152 123 123 123 124 124 124 121 121 121 115 115 115 91 91 91 91 91 91 92 92 92 
65 65 65 64 64 64 64 64 64 61 61 61 63 63 63 59 59 59 51 51 51 49 49 49 53 53 53 116 116 116 167 167 167 172 172 172 172 172 172 178 178 178 175 175 175 27 27 27 42 42 42 177 177 177 183 183 183 194 194 194 28 28 28 30 30 30 41 41 41 43 43 43 43 43 43 42 42 42 39 39 39 42 42 42 179 179 179 179 179 179 181 181 181 182 182 182 183 183 183 180 180 180 166 166 166 169 169 169 172 172 172 167 167 167 163 163 163 160 160 160 152 152 152 135 135 135 155 155 155 123 123 123 123 123 123 120 120 120 116 116 116 93 93 93 93 93 93 93 93 93 
71 71 71 66 66 66 56 56 56 64 64 64 65 65 65 45 45 45 51 51 51 49 49 49 61 61 61 117 117 117 168 168 168 169 169 169 175 175 175 173 173 173 173 173 173 42 42 42 43 43 43 177 177 177 182 182 182 217 217 217 29 29 29 30 30 30 41 41 41 42 42 42 42 42 42 42 42 42 38 38 38 41 41 41 177 177 177 180 180 180 180 180 180 182 182 182 185 185 185 179 179 179 165 165 165 168 168 168 168 168 168 164 164 164 161 161 161 160 160 160 149 149 149 131 131 131 158 158 158 124 124 124 121 121 121 118 118 118 114 114 114 92 92 92 94 94 94 95 95 95 
128 128 128 91 91 91 100 100 100 85 85 85 71 71 71 73 73 73 57 57 57 50 50 50 59 59 59 115 115 115 171 171 171 165 165 165 171 171 171 170 170 170 174 174 174 188 188 188 42 42 42 44 44 44 185 185 185 16 16 16 28 28 28 38 38 38 42 42 42 43 43 43 41 41 41 34 34 34 38 38 38 42 42 42 184 184 184 180 180 180 182 182 182 183 183 183 183 183 183 178 178 178 166 166 166 171 171 171 169 169 169 166 166 166 162 162 162 159 159 159 145 145 145 129 129 129 158 158 158 122 122 122 121 121 121 116 116 116 95 95 95 92 92 92 96 96 96 99 99 99 
129 129 129 117 117 117 131 131 131 130 130 130 129 129 129 123 123 123 113 113 113 108 108 108 69 69 69 97 97 97 161 161 161 156 156 156 156 156 156 156 156 156 156 156 156 157 157 157 31 31 31 41 41 41 181 181 181 28 28 28 29 29 29 32 32 32 41 41 41 43 43 43 30 30 30 13 13 13 41 41 41 43 43 43 176 176 176 176 176 176 181 181 181 180 180 180 181 181 181 173 173 173 177 177 177 151 151 151 166 166 166 159 159 159 155 155 155 155 155 155 142 142 142 130 130 130 159 159 159 124 124 124 122 122 122 118 118 118 88 88 88 92 92 92 96 96 96 99 99 99 
127 127 127 124 124 124 129 129 129 130 130 130 127 127 127 123 123 123 114 114 114 110 110 110 83 83 83 118 118 118 155 155 155 164 164 164 174 174 174 177 177 177 179 179 179 179 179 179 31 31 31 41 41 41 26 26 26 28 28 28 29 29 29 26 26 26 40 40 40 43 43 43 30 30 30 25 25 25 39 39 39 41 41 41 144 144 144 173 173 173 180 180 180 171 171 171 170 170 170 159 159 159 168 168 168 162 162 162 161 161 161 154 154 154 152 152 152 150 150 150 140 140 140 123 123 123 155 155 155 127 127 127 118 118 118 115 115 115 90 90 90 91 91 91 98 98 98 100 100 100 
127 127 127 130 130 130 127 127 127 127 127 127 127 127 127 121 121 121 113 113 113 111 111 111 93 93 93 118 118 118 151 151 151 168 168 168 174 174 174 177 177 177 178 178 178 180 180 180 167 167 167 30 30 30 28 28 28 28 28 28 29 29 29 30 30 30 40 40 40 42 42 42 30 30 30 26 26 26 40 40 40 37 37 37 30 30 30 174 174 174 173 173 173 175 175 175 177 177 177 172 172 172 188 188 188 173 173 173 173 173 173 174 174 174 179 179 179 184 184 184 158 158 158 152 152 152 151 151 151 148 148 148 153 153 153 158 158 158 89 89 89 91 91 91 93 93 93 90 90 90 
125 125 125 128 128 128 125 125 125 125 125 125 123 123 123 117 117 117 110 110 110 110 110 110 97 97 97 117 117 117 151 151 151 171 171 171 173 173 173 175 175 175 179 179 179 178 178 178 180 180 180 167 167 167 27 27 27 27 27 27 27 27 27 28 28 28 40 40 40 41 41 41 30 30 30 28 28 28 40 40 40 10 10 10 45 45 45 170 170 170 172 172 172 172 172 172 170 170 170 163 163 163 192 192 192 162 162 162 164 164 164 159 159 159 156 156 156 152 152 152 130 130 130 123 123 123 138 138 138 121 121 121 120 120 120 113 113 113 89 89 89 89 89 89 92 92 92 90 90 90 
123 123 123 122 122 122 125 125 125 125 125 125 121 121 121 114 114 114 110 110 110 109 109 109 95 95 95 117 117 117 152 152 152 171 171 171 172 172 172 174 174 174 178 178 178 179 179 179 177 177 177 171 171 171 27 27 27 28 28 28 28 28 28 23 23 23 40 40 40 40 40 40 28 28 28 34 34 34 40 40 40 38 38 38 42 42 42 169 169 169 171 171 171 171 171 171 172 172 172 170 170 170 205 205 205 168 168 168 165 165 165 160 160 160 154 154 154 142 142 142 136 136 136 130 130 130 134 134 134 122 122 122 120 120 120 119 119 119 90 90 90 88 88 88 91 91 91 91 91 91 
121 121 121 124 124 124 124 124 124 119 119 119 118 118 118 113 113 113 111 111 111 112 112 112 101 101 101 111 111 111 156 156 156 168 168 168 173 173 173 174 174 174 177 177 177 179 179 179 180 180 180 169 169 169 29 29 29 28 28 28 27 27 27 28 28 28 35 35 35 40 40 40 28 28 28 43 43 43 40 40 40 41 41 41 43 43 43 170 170 170 170 170 170 171 171 171 172 172 172 171 171 171 211 211 211 172 172 172 169 169 169 156 156 156 148 148 148 140 140 140 136 136 136 128 128 128 122 122 122 124 124 124 119 119 119 92 92 92 89 89 89 88 88 88 89 89 89 92 92 92 
121 121 121 117 117 117 118 118 118 115 115 115 112 112 112 109 109 109 106 106 106 107 107 107 102 102 102 125 125 125 161 161 161 172 172 172 172 172 172 172 172 172 172 172 172 177 177 177 177 177 177 166 166 166 25 25 25 27 27 27 27 27 27 25 25 25 28 28 28 40 40 40 27 27 27 38 38 38 38 38 38 41 41 41 16 16 16 170 170 170 172 172 172 173 173 173 173 173 173 173 173 173 213 213 213 181 181 181 173 173 173 166 166 166 153 153 153 144 144 144 133 133 133 131 131 131 126 126 126 123 123 123 120 120 120 91 91 91 90 90 90 94 94 94 94 94 94 97 97 97 
82 82 82 98 98 98 95 95 95 101 101 101 123 123 123 112 112 112 166 166 166 105 105 105 118 118 118 126 126 126 168 168 168 168 168 168 167 167 167 163 163 163 163 163 163 161 161 161 163 163 163 163 163 163 182 182 182 12 12 12 28 28 28 26 26 26 28 28 28 41 41 41 24 24 24 41 41 41 23 23 23 19 19 19 187 187 187 184 184 184 169 169 169 173 173 173 177 177 177 172 172 172 198 198 198 187 187 187 175 175 175 168 168 168 155 155 155 146 146 146 134 134 134 129 129 129 128 128 128 125 125 125 120 120 120 90 90 90 93 93 93 95 95 95 95 95 95 100 100 100 
193 193 193 194 194 194 193 193 193 194 194 194 197 197 197 195 195 195 195 195 195 195 195 195 194 194 194 193 193 193 197 197 197 199 199 199 200 200 200 208 208 208 210 210 210 218 218 218 203 203 203 27 27 27 33 33 33 12 12 12 30 30 30 24 24 24 25 25 25 37 37 37 12 12 12 41 41 41 43 43 43 38 38 38 201 201 201 219 219 219 226 226 226 231 231 231 235 235 235 237 237 237 235 235 235 235 235 235 233 233 233 233 233 233 227 227 227 222 222 222 207 207 207 131 131 131 140 140 140 129 129 129 123 123 123 101 101 101 94 94 94 96 96 96 98 98 98 97 97 97 
184 184 184 196 196 196 194 194 194 196 196 196 197 197 197 195 195 195 195 195 195 195 195 195 192 192 192 190 190 190 209 209 209 214 214 214 214 214 214 216 216 216 215 215 215 219 219 219 221 221 221 216 216 216 215 215 215 214 214 214 210 210 210 207 207 207 212 212 212 157 157 157 214 214 214 201 201 201 200 200 200 194 194 194 203 203 203 209 209 209 228 228 228 234 234 234 234 234 234 228 228 228 228 228 228 227 227 227 231 231 231 234 234 234 233 233 233 213 213 213 215 215 215 215 215 215 215 215 215 217 217 217 216 216 216 216 216 216 208 208 208 207 207 207 204 204 204 139 139 139 
213 213 213 212 212 212 216 216 216 218 218 218 183 183 183 216 216 216 215 215 215 202 202 202 199 199 199 198 198 198 214 214 214 216 216 216 219 219 219 221 221 221 221 221 221 218 218 218 222 222 222 224 224 224 216 216 216 211 211 211 204 204 204 201 201 201 200 200 200 200 200 200 199 199 199 201 201 201 198 198 198 200 200 200 201 201 201 219 219 219 179 179 179 228 228 228 226 226 226 226 226 226 225 225 225 226 226 226 227 227 227 225 225 225 222 222 222 222 222 222 222 222 222 224 224 224 224 224 224 217 217 217 217 217 217 218 218 218 198 198 198 195 195 195 197 197 197 197 197 197 
201 201 201 203 203 203 202 202 202 202 202 202 203 203 203 202 202 202 201 201 201 203 203 203 188 188 188 177 177 177 215 215 215 217 217 217 216 216 216 215 215 215 219 219 219 221 221 221 219 219 219 214 214 214 212 212 212 199 199 199 195 195 195 193 193 193 191 191 191 196 196 196 199 199 199 195 195 195 193 193 193 194 194 194 190 190 190 215 215 215 225 225 225 226 226 226 229 229 229 231 231 231 229 229 229 224 224 224 202 202 202 172 172 172 221 221 221 220 220 220 221 221 221 219 219 219 216 216 216 214 214 214 215 215 215 214 214 214 190 190 190 188 188 188 190 190 190 194 194 194 
200 200 200 202 202 202 203 203 203 200 200 200 202 202 202 202 202 202 200 200 200 193 193 193 194 194 194 191 191 191 212 212 212 212 212 212 189 189 189 172 172 172 216 216 216 220 220 220 214 214 214 221 221 221 209 209 209 189 189 189 180 180 180 178 178 178 177 177 177 179 179 179 179 179 179 182 182 182 182 182 182 183 183 183 181 181 181 218 218 218 222 222 222 220 220 220 219 219 219 220 220 220 222 222 222 221 221 221 222 222 222 220 220 220 218 218 218 216 216 216 218 218 218 217 217 217 214 214 214 156 156 156 195 195 195 206 206 206 187 187 187 187 187 187 187 187 187 189 189 189 
200 200 200 204 204 204 198 198 198 196 196 196 199 199 199 200 200 200 198 198 198 195 195 195 188 188 188 184 184 184 218 218 218 214 214 214 211 211 211 177 177 177 157 157 157 152 152 152 114 114 114 181 181 181 202 202 202 126 126 126 131 131 131 119 119 119 100 100 100 87 87 87 82 82 82 132 132 132 173 173 173 188 188 188 214 214 214 214 214 214 213 213 213 214 214 214 215 215 215 217 217 217 217 217 217 213 213 213 216 216 216 216 216 216 216 216 216 214 214 214 216 216 216 216 216 216 217 217 217 219 219 219 218 218 218 212 212 212 182 182 182 188 188 188 208 208 208 207 207 207 
