P3
5 5
255
95 95 95 187 187 187 191 191 191 189 189 189 132 132 132 
147 147 147 219 219 219 203 203 203 196 196 196 149 149 149 
150 150 150 43 43 43 43 43 43 183 183 183 125 125 125 
63 63 63 172 172 172 45 45 45 169 169 169 120 120 120 
195 195 195 217 217 217 24 24 24 236 236 236 208 208 208 
